<?xml version="1.0" standalone="no"?>
<!DOCTYPE svg PUBLIC "-//W3C//DTD SVG 20010904//EN"
 "http://www.w3.org/TR/2001/REC-SVG-20010904/DTD/svg10.dtd">
<svg version="1.0" xmlns="http://www.w3.org/2000/svg"
 width="1156.000000pt" height="153.000000pt" viewBox="0 0 1156.000000 153.000000"
 preserveAspectRatio="xMidYMid meet">
<metadata>
Created by potrace 1.16, written by Peter Selinger 2001-2019
</metadata>
<g transform="translate(0.000000,153.000000) scale(0.100000,-0.100000)"
fill="#000000" stroke="none">
<path d="M1432 1521 c-13 -8 -61 -191 -81 -315 -11 -65 -30 -138 -145 -576
-44 -169 -87 -378 -100 -488 -6 -47 -4 -55 18 -77 14 -14 36 -25 50 -25 31 0
66 43 66 80 0 42 38 254 63 355 26 99 29 102 119 104 l47 1 6 -47 c39 -300 76
-481 101 -500 43 -31 104 -2 104 50 0 18 -11 90 -25 160 -39 202 -87 715 -101
1077 -3 96 -11 183 -16 193 -9 18 -81 24 -106 8z"/>
<path d="M1848 1501 c-59 -37 -76 -84 -44 -120 10 -12 11 -32 5 -86 -5 -38
-13 -250 -19 -470 -5 -220 -12 -476 -16 -570 -6 -165 -6 -171 15 -197 16 -21
31 -28 56 -28 51 0 59 18 61 148 1 65 5 175 9 245 l7 128 25 -37 c56 -82 117
-251 143 -395 15 -82 32 -109 69 -109 90 0 94 39 29 275 -36 133 -102 275
-162 348 l-43 53 33 46 c66 89 128 268 140 403 8 87 -17 228 -52 296 -49 97
-164 128 -256 70z m140 -138 c23 -59 32 -111 32 -188 0 -87 -13 -145 -56 -257
l-28 -73 -7 45 c-10 65 10 437 26 488 7 20 22 14 33 -15z"/>
<path d="M2422 1513 c-38 -19 -82 -67 -82 -92 0 -9 7 -26 15 -38 13 -18 13
-36 5 -115 -10 -92 -36 -926 -34 -1106 1 -106 15 -132 69 -132 51 0 65 25 65
112 0 41 3 150 7 243 6 165 6 167 25 144 51 -66 111 -222 149 -392 12 -54 28
-105 36 -113 24 -24 80 -18 99 11 20 30 10 96 -35 252 -51 174 -115 305 -181
368 l-29 28 30 38 c37 47 90 160 120 259 47 150 25 398 -42 484 -47 60 -148
83 -217 49z m122 -155 c28 -66 39 -181 27 -254 -13 -72 -48 -181 -74 -230 -15
-28 -16 -23 -17 107 0 194 21 409 41 409 5 0 16 -15 23 -32z"/>
<path d="M7426 1517 c-38 -28 -39 -50 -33 -1179 l2 -276 24 -26 c28 -30 57
-33 90 -9 l24 16 -6 661 c-3 364 -2 684 2 711 9 51 0 93 -22 107 -19 12 -61 9
-81 -5z"/>
<path d="M9430 1515 c-17 -21 -28 -307 -33 -912 -5 -500 -5 -513 15 -538 29
-37 90 -35 151 6 60 40 132 120 164 184 95 185 61 413 -74 492 l-43 25 21 35
c34 54 56 105 85 189 21 63 27 99 28 179 1 93 -2 105 -31 167 -42 89 -77 134
-128 163 -49 29 -135 35 -155 10z m156 -219 c40 -85 29 -211 -31 -348 -13 -30
-14 -13 -15 190 0 241 3 251 46 158z m13 -675 c85 -90 56 -293 -55 -393 -18
-16 -19 -13 -13 125 4 78 7 177 8 220 1 88 13 98 60 48z"/>
<path d="M10151 1511 c-14 -14 -21 -40 -26 -93 -11 -117 2 -1345 15 -1368 15
-27 47 -43 76 -36 52 13 51 3 42 666 -6 401 -5 648 1 710 9 79 8 98 -5 117
-19 29 -76 31 -103 4z"/>
<path d="M649 1499 c-16 -16 -19 -27 -13 -47 16 -57 15 -498 -1 -870 -24 -529
-20 -572 60 -572 62 0 65 12 65 248 0 199 1 212 18 212 27 0 53 34 110 140
115 215 152 384 122 564 -20 123 -103 239 -221 309 -72 42 -110 46 -140 16z
m209 -274 c14 -24 17 -56 17 -170 -1 -149 -13 -204 -76 -327 l-24 -47 2 232
c2 128 6 270 9 317 l6 85 25 -30 c13 -17 32 -43 41 -60z"/>
<path d="M7045 1506 c-52 -23 -123 -106 -164 -191 -162 -331 -203 -725 -110
-1045 45 -154 90 -220 171 -254 80 -34 161 -14 230 57 86 89 110 142 123 277
8 73 -25 291 -50 340 -19 36 -61 50 -155 50 -67 0 -79 -3 -98 -23 -27 -29 -28
-61 -2 -87 16 -16 33 -20 80 -20 l59 0 11 -38 c18 -62 24 -233 11 -289 -14
-55 -58 -116 -101 -138 -79 -41 -137 51 -177 280 -23 137 -13 407 21 535 50
189 146 396 191 414 8 3 18 -7 25 -25 20 -48 93 -54 118 -9 19 33 2 99 -36
141 -33 37 -98 48 -147 25z"/>
<path d="M3074 1499 c-75 -21 -170 -182 -185 -312 -11 -100 -11 -419 1 -622
16 -249 36 -331 114 -447 44 -67 83 -91 151 -92 65 -1 123 34 164 100 60 93
110 384 118 684 5 179 3 223 -16 349 -33 214 -76 295 -179 335 -46 17 -118 20
-168 5z m127 -135 c19 -9 38 -32 49 -57 24 -54 60 -303 60 -414 0 -244 -64
-647 -112 -708 -28 -36 -53 -31 -88 17 -70 96 -93 262 -94 678 -1 311 6 360
60 443 36 56 74 68 125 41z"/>
<path d="M3601 1500 c-68 -11 -93 -63 -51 -108 17 -18 32 -22 88 -22 l67 0 -2
-447 c-2 -247 -8 -539 -14 -650 -11 -213 -9 -232 32 -254 29 -15 66 -4 85 27
17 25 21 207 33 1274 l1 55 66 0 c57 0 68 3 85 24 26 31 24 57 -6 86 -24 25
-27 25 -182 24 -87 -1 -178 -5 -202 -9z"/>
<path d="M7710 1503 c-58 -9 -68 -14 -80 -44 -11 -27 -11 -33 7 -57 18 -24 27
-27 90 -30 l70 -3 -4 -472 c-2 -260 -8 -549 -13 -644 -6 -108 -6 -181 0 -197
19 -52 85 -58 116 -12 13 20 17 85 24 386 5 200 7 366 4 371 -3 5 -2 136 2
292 l7 282 62 0 c48 0 68 5 84 19 28 25 27 67 -2 94 -22 21 -32 22 -183 21
-87 -1 -170 -3 -184 -6z"/>
<path d="M8209 1483 c-21 -28 -22 -29 -15 -338 4 -171 10 -482 15 -693 7 -361
9 -385 28 -410 27 -36 71 -41 100 -10 21 22 21 28 13 163 -5 77 -9 238 -10
358 l0 217 48 0 c26 0 64 3 85 6 l37 7 0 -365 c0 -354 1 -366 21 -392 24 -31
57 -34 89 -8 l23 19 1 717 1 718 -24 19 c-29 24 -53 24 -82 0 -22 -17 -23 -26
-24 -127 0 -60 -2 -186 -3 -280 l-2 -171 -82 -7 c-45 -4 -85 -3 -89 1 -5 5
-11 134 -14 287 -4 242 -7 282 -21 298 -25 27 -69 23 -95 -9z"/>
<path d="M10554 1499 c-36 -10 -104 -80 -132 -136 -65 -127 -81 -323 -58 -714
20 -334 38 -411 124 -541 75 -114 223 -110 304 8 90 130 155 701 114 1001 -35
252 -68 323 -176 372 -48 22 -122 26 -176 10z m127 -135 c42 -21 63 -76 86
-219 35 -230 15 -583 -48 -844 -36 -149 -83 -181 -137 -93 -66 108 -84 249
-86 662 -1 263 1 313 16 361 21 67 55 119 88 136 33 17 45 16 81 -3z"/>
<path d="M4304 1486 c-39 -17 -97 -78 -128 -137 -14 -25 -32 -85 -41 -134 -19
-113 -8 -205 42 -349 19 -55 35 -110 34 -121 0 -11 -17 -74 -36 -139 -47 -153
-75 -287 -75 -356 1 -187 197 -271 303 -129 25 35 47 128 47 205 0 73 -31 233
-66 346 l-25 80 35 131 c20 73 42 162 51 199 19 83 38 311 29 350 -12 57 -99
85 -170 54z m26 -252 c-13 -132 -40 -248 -54 -234 -15 15 -13 195 2 246 12 40
50 99 58 91 2 -2 0 -48 -6 -103z m-21 -834 c11 -83 6 -150 -16 -192 -17 -35
-28 -35 -49 -3 -15 23 -15 34 -4 103 17 107 42 196 51 180 4 -7 12 -47 18 -88z"/>
<path d="M4775 1485 c-69 -31 -138 -131 -161 -232 -27 -122 -17 -241 34 -387
l41 -118 -36 -122 c-52 -176 -71 -262 -79 -346 -6 -65 -4 -81 16 -122 47 -101
146 -136 235 -83 114 66 125 302 29 605 -14 44 -23 84 -20 89 3 5 26 87 51
182 37 143 47 202 56 326 10 138 10 155 -5 178 -29 45 -99 57 -161 30z m26
-280 c-7 -49 -20 -121 -30 -160 l-18 -70 -13 60 c-19 92 -2 205 42 275 22 34
22 34 26 10 2 -13 -1 -65 -7 -115z m-21 -790 c14 -99 6 -185 -19 -216 l-17
-22 -22 28 c-25 31 -25 36 10 198 12 53 24 97 29 97 4 0 12 -38 19 -85z"/>
<path d="M5482 1475 c-56 -47 -59 -115 -7 -135 26 -10 68 0 80 19 10 17 40 13
60 -9 40 -44 58 -242 34 -376 -19 -107 -111 -460 -203 -773 -20 -68 -34 -132
-31 -142 4 -10 18 -28 32 -39 24 -19 39 -20 184 -19 142 1 162 3 184 21 30 23
32 57 6 89 -18 23 -25 24 -135 23 -64 0 -116 3 -116 8 0 5 18 70 40 143 38
128 58 202 135 500 89 347 62 600 -74 692 -50 34 -148 33 -189 -2z"/>
<path d="M8768 1460 l-25 -19 3 -598 c2 -329 6 -614 10 -633 11 -65 64 -150
114 -181 39 -25 55 -29 120 -29 59 0 83 5 115 23 130 74 180 280 191 787 7
332 -12 584 -46 612 -30 24 -65 23 -91 -3 -18 -18 -20 -29 -16 -73 3 -28 11
-142 18 -254 14 -235 2 -525 -31 -716 -33 -192 -62 -246 -132 -246 -56 0 -72
12 -98 72 -22 52 -22 57 -16 308 4 143 3 402 -3 590 l-11 335 -26 23 c-31 27
-44 28 -76 2z"/>
<path d="M6203 1445 c-42 -18 -64 -75 -134 -357 -33 -133 -72 -277 -85 -320
-43 -135 -63 -245 -53 -283 15 -53 56 -80 143 -94 42 -7 85 -10 96 -6 19 6 20
2 20 -142 0 -154 9 -220 32 -234 26 -17 76 -10 92 13 13 19 15 49 9 202 l-6
181 31 11 c55 21 53 106 -3 120 l-25 6 0 247 c-1 370 -14 618 -35 641 -23 25
-47 30 -82 15z m-14 -823 l1 -103 -62 3 -63 3 4 35 c1 19 18 87 37 150 19 63
42 147 52 185 l17 70 6 -120 c4 -66 7 -166 8 -223z"/>
<path d="M5173 1438 c-5 -7 -35 -65 -67 -129 -59 -120 -63 -141 -30 -174 18
-18 65 -20 82 -3 15 15 16 -60 2 -182 -5 -47 -16 -197 -25 -335 -24 -399 -29
-442 -55 -450 -10 -3 -23 -19 -30 -35 -33 -79 94 -135 222 -100 60 17 76 69
35 108 -13 12 -34 22 -46 22 -23 0 -23 1 -17 78 4 42 15 212 26 377 11 165 25
350 31 410 12 119 6 324 -10 367 -17 44 -96 75 -118 46z"/>
<path d="M6505 195 c-20 -19 -25 -34 -25 -73 0 -55 10 -69 58 -78 44 -9 79 16
92 65 13 48 -1 83 -37 100 -37 17 -62 13 -88 -14z"/>
<path d="M9906 198 c-20 -17 -29 -36 -33 -68 -6 -52 12 -75 65 -86 67 -14 120
90 75 145 -28 33 -75 37 -107 9z"/>
</g>
</svg>
